HIERARCHY
ROOT Hips
{
	OFFSET -0.001795 -0.223333 0.028219
	CHANNELS 6 Xposition Yposition Zposition Zrotation Yrotation Xrotation 
	JOINT LeftUpLeg
	{
		OFFSET 0.069520 -0.091406 -0.006815
		CHANNELS 3 Zrotation Yrotation Xrotation
		JOINT LeftLeg
		{
			OFFSET 0.034277 -0.375199 -0.004496
			CHANNELS 3 Zrotation Yrotation Xrotation
			JOINT LeftFoot
			{
				OFFSET -0.013596 -0.397961 -0.043693
				CHANNELS 3 Zrotation Yrotation Xrotation
				JOINT LeftToe
				{
					OFFSET 0.026358 -0.055791 0.119288
					CHANNELS 3 Zrotation Yrotation Xrotation
					End Site
					{
						OFFSET 0.000000 0.000000 0.000000
					}
				}
			}
		}
	}
	JOINT RightUpLeg
	{
		OFFSET -0.067670 -0.090522 -0.004320
		CHANNELS 3 Zrotation Yrotation Xrotation
		JOINT RightLeg
		{
			OFFSET -0.038290 -0.382569 -0.008850
			CHANNELS 3 Zrotation Yrotation Xrotation
			JOINT RightFoot
			{
				OFFSET 0.015774 -0.398415 -0.042312
				CHANNELS 3 Zrotation Yrotation Xrotation
				JOINT RightToe
				{
					OFFSET -0.025372 -0.048144 0.123348
					CHANNELS 3 Zrotation Yrotation Xrotation
					End Site
					{
						OFFSET 0.000000 0.000000 0.000000
					}
				}
			}
		}
	}
	JOINT Spine
	{
		OFFSET -0.002533 0.108963 -0.026696
		CHANNELS 3 Zrotation Yrotation Xrotation
		JOINT Spine1
		{
			OFFSET 0.005487 0.135180 0.001092
			CHANNELS 3 Zrotation Yrotation Xrotation
			JOINT Spine2
			{
				OFFSET 0.001457 0.052922 0.025425
				CHANNELS 3 Zrotation Yrotation Xrotation
				JOINT Neck
				{
					OFFSET -0.002778 0.213870 -0.042857
					CHANNELS 3 Zrotation Yrotation Xrotation
					JOINT Head
					{
						OFFSET 0.005152 0.064970 0.051349
						CHANNELS 3 Zrotation Yrotation Xrotation
						End Site
						{
							OFFSET 0.000000 0.000000 0.000000
						}
					}
				}
				JOINT LeftShoulder
				{
					OFFSET 0.078845 0.121749 -0.034090
					CHANNELS 3 Zrotation Yrotation Xrotation
					JOINT LeftArm
					{
						OFFSET 0.090977 0.030469 -0.008868
						CHANNELS 3 Zrotation Yrotation Xrotation
						JOINT LeftForeArm
						{
							OFFSET 0.259612 -0.012772 -0.027456
							CHANNELS 3 Zrotation Yrotation Xrotation
							JOINT LeftHand
							{
								OFFSET 0.249234 0.008986 -0.001171
								CHANNELS 3 Zrotation Yrotation Xrotation
								End Site
								{
									OFFSET 0.000000 0.000000 0.000000
								}
							}
						}
					}
				}
				JOINT RightShoulder
				{
					OFFSET -0.081759 0.118833 -0.038615
					CHANNELS 3 Zrotation Yrotation Xrotation
					JOINT RightArm
					{
						OFFSET -0.096012 0.032551 -0.009143
						CHANNELS 3 Zrotation Yrotation Xrotation
						JOINT RightForeArm
						{
							OFFSET -0.253742 -0.013329 -0.021401
							CHANNELS 3 Zrotation Yrotation Xrotation
							JOINT RightHand
							{
								OFFSET -0.255298 0.007772 -0.005559
								CHANNELS 3 Zrotation Yrotation Xrotation
								End Site
								{
									OFFSET 0.000000 0.000000 0.000000
								}
							}
						}
					}
				}
			}
		}
	}
}
MOTION
Frames: 11
Frame Time: 0.050000
0.178884 0.859259 -0.361810 4.212304 29.452773 10.722341 25.934399 -1.661649 -19.903303 -16.567355 1.851772 35.389508 10.243744 20.084626 -2.273441 0.000000 0.000000 0.000000 -28.886576 -10.487348 -31.922518 6.504900 -7.092244 44.583540 -2.540278 -5.092386 -4.889917 0.000000 0.000000 0.000000 1.871153 -0.068016 -0.422209 1.442449 0.454023 -13.612912 -1.022404 -2.593659 22.002774 2.031365 2.321282 -24.870048 0.000000 0.000000 0.000000 -22.437373 -13.635585 1.606734 -36.015914 -13.137499 -0.700557 -173.963284 -32.172864 165.964514 0.000000 0.000000 0.000000 9.913252 8.539825 5.378118 36.032419 19.143509 0.123168 -162.647474 34.637315 -99.122731 0.000000 0.000000 0.000000 
0.185440 0.858305 -0.371652 4.592861 30.912732 10.455653 25.233812 -1.722688 -20.677132 -15.699937 1.316587 35.629107 9.781901 18.862740 -3.323577 0.000000 0.000000 0.000000 -29.818803 -10.687233 -30.030022 6.613161 -7.311493 43.964931 -2.456812 -4.923496 -4.826849 0.000000 0.000000 0.000000 1.426357 -0.056178 -0.167069 1.165878 0.558060 -13.273972 -0.538709 -0.115354 21.650716 3.241397 2.087532 -24.551152 0.000000 0.000000 0.000000 -22.015954 -13.099391 0.193500 -36.338541 -10.731823 -1.015853 -172.515519 -30.277317 157.632459 0.000000 0.000000 0.000000 9.427949 8.268558 5.563776 33.859015 20.968739 0.533834 -158.714241 34.177460 -87.300809 0.000000 0.000000 0.000000 
0.190733 0.856916 -0.381492 5.185679 32.534891 10.318085 24.311300 -1.803378 -21.608114 -14.803366 0.748228 35.730903 9.274498 17.330832 -4.721315 0.000000 0.000000 0.000000 -30.818248 -10.858523 -27.897348 6.853083 -7.658844 43.405989 -2.304774 -4.525732 -5.113254 0.000000 0.000000 0.000000 0.865188 -0.043290 0.144878 0.776823 0.712418 -13.163894 0.011841 2.985783 21.356518 4.597831 1.834476 -24.032348 0.000000 0.000000 0.000000 -21.597574 -12.423839 -1.512696 -36.616904 -8.336451 -1.282645 -170.614085 -28.200004 146.238955 0.000000 0.000000 0.000000 8.393107 8.656229 5.966369 30.309762 23.425353 0.979617 -151.729093 34.065104 -71.510019 0.000000 0.000000 0.000000 
0.194319 0.854588 -0.390882 5.906369 34.164667 10.310116 23.253526 -1.905856 -22.665858 -13.892384 0.179723 35.724282 8.730036 15.508746 -6.209223 0.000000 0.000000 0.000000 -31.764129 -10.957982 -25.660328 7.124014 -8.022143 42.794004 -2.117242 -3.979812 -5.819311 0.000000 0.000000 0.000000 0.249131 -0.023292 0.306721 0.220094 0.923256 -13.159249 0.455728 6.272911 20.928998 6.000475 1.512438 -23.252555 0.000000 0.000000 0.000000 -21.079228 -11.618766 -3.285772 -36.917036 -5.837129 -1.600203 -168.825817 -26.221183 134.316215 0.000000 0.000000 0.000000 6.930826 9.761214 6.517369 25.408292 25.753040 1.181641 -141.117026 33.335872 -52.949828 0.000000 0.000000 0.000000 
0.195956 0.852588 -0.399740 6.358240 35.632266 10.112721 22.498794 -2.016385 -23.469800 -12.752026 -0.403158 35.520218 8.134724 13.529480 -7.261564 0.000000 0.000000 0.000000 -32.498130 -10.830093 -23.227041 7.567443 -8.395455 41.901021 -1.971497 -3.641000 -6.141782 0.000000 0.000000 0.000000 0.028307 -0.012845 0.271923 -0.305702 1.112878 -13.004576 0.719893 9.708663 20.558137 7.611656 1.072402 -22.721834 0.000000 0.000000 0.000000 -20.473152 -10.822238 -4.953275 -37.193754 -3.139024 -2.040904 -167.453293 -23.858452 122.586473 0.000000 0.000000 0.000000 5.353743 10.874250 6.926480 19.537100 27.761087 1.053367 -128.169978 30.887109 -34.606177 0.000000 0.000000 0.000000 
0.195641 0.850323 -0.408060 6.753890 36.388260 9.969849 22.056107 -2.083289 -24.105308 -11.956061 -0.766925 35.359160 7.464854 11.486571 -7.971594 0.000000 0.000000 0.000000 -32.881644 -10.662451 -21.635140 7.873157 -8.554938 41.106125 -1.702137 -2.929404 -6.519856 0.000000 0.000000 0.000000 -0.141606 -0.004658 0.212943 -0.986333 1.350760 -13.393433 0.886301 12.137305 20.403783 8.679917 0.674916 -21.903976 0.000000 0.000000 0.000000 -19.855479 -9.778115 -6.220519 -37.444649 -0.724027 -2.590534 -166.538291 -22.338844 114.197687 0.000000 0.000000 0.000000 3.903474 12.308364 7.334005 15.811646 28.892529 0.920625 -117.404148 27.986938 -22.478421 0.000000 0.000000 0.000000 
0.193392 0.847609 -0.415902 6.794817 36.540177 9.744375 22.405690 -2.100283 -24.623535 -11.422593 -0.941298 35.321778 6.886641 10.229153 -7.769369 0.000000 0.000000 0.000000 -32.953984 -10.576592 -21.127040 8.011478 -8.704717 41.173195 -1.511093 -2.423148 -6.505598 0.000000 0.000000 0.000000 0.045659 -0.009991 0.194630 -1.570918 1.533780 -13.491805 0.836629 14.172634 20.432761 9.618470 0.341979 -21.649085 0.000000 0.000000 0.000000 -19.580736 -9.188998 -7.107044 -37.891974 0.563146 -2.907298 -166.205017 -21.673648 110.609079 0.000000 0.000000 0.000000 2.752475 13.373691 7.573982 13.139760 29.795420 0.804459 -109.991796 25.026152 -14.743914 0.000000 0.000000 0.000000 
0.189628 0.844795 -0.423761 6.798251 36.037825 9.821649 23.058298 -2.064682 -25.015252 -11.192938 -0.896143 35.070917 6.542025 9.885762 -7.134898 0.000000 0.000000 0.000000 -32.710878 -10.615254 -21.898665 7.875685 -8.687884 41.769336 -1.323771 -1.803289 -6.783287 0.000000 0.000000 0.000000 0.268265 -0.014643 0.120390 -2.171449 1.704726 -13.559181 0.641240 15.218246 20.520411 10.161246 0.046753 -21.335313 0.000000 0.000000 0.000000 -19.680651 -8.913420 -7.608521 -39.080007 0.798942 -3.048589 -165.957645 -21.959787 110.004672 0.000000 0.000000 0.000000 1.754415 14.161660 7.606878 12.637924 30.982211 0.992207 -107.032139 23.401680 -11.235941 0.000000 0.000000 0.000000 
0.184656 0.842778 -0.432045 6.448450 34.506285 9.736889 24.206383 -1.910937 -24.817014 -11.499757 -0.512838 34.568888 6.372820 10.144029 -6.320291 0.000000 0.000000 0.000000 -31.966714 -10.506905 -23.671915 7.656684 -8.440999 42.505654 -1.090782 -0.963400 -7.145882 0.000000 0.000000 0.000000 0.468834 -0.033448 0.375476 -2.606411 1.810490 -13.751137 0.197317 14.987976 20.590491 10.066881 -0.061223 -21.186420 0.000000 0.000000 0.000000 -20.346648 -9.413115 -7.436942 -41.338385 -0.976705 -2.698478 -165.441798 -23.726909 111.293796 0.000000 0.000000 0.000000 1.058978 14.464640 7.368685 14.811464 32.917197 1.697983 -108.491261 24.094212 -12.057889 0.000000 0.000000 0.000000 
0.179093 0.841297 -0.441266 5.657043 31.984089 9.674174 25.671704 -1.662356 -24.073530 -12.138363 0.103875 33.986438 6.599411 11.414510 -5.351625 0.000000 0.000000 0.000000 -30.728716 -10.306989 -26.609199 7.535925 -8.081727 43.437200 -0.912393 -0.226681 -7.331210 0.000000 0.000000 0.000000 0.802914 -0.055302 0.510234 -2.920802 1.863025 -13.939937 -0.628117 12.650805 20.735360 9.038209 0.168639 -21.552621 0.000000 0.000000 0.000000 -21.209673 -10.817406 -5.927525 -44.044607 -6.304835 -1.315660 -165.985749 -27.869714 121.274592 0.000000 0.000000 0.000000 1.212738 13.860624 6.873932 19.656183 36.258190 3.175396 -114.413169 27.346105 -18.538619 0.000000 0.000000 0.000000 
0.173858 0.839970 -0.451997 4.445144 28.714530 9.606664 27.293358 -1.370349 -22.672638 -12.843719 0.821062 33.401057 7.234880 13.455793 -4.443074 0.000000 0.000000 0.000000 -29.052838 -9.977001 -30.436733 7.604816 -7.664243 44.448845 -0.749284 0.279935 -6.762503 0.000000 0.000000 0.000000 1.246698 -0.081513 0.559898 -2.928905 1.813280 -14.101590 -1.673832 8.095504 20.890347 7.029503 0.659547 -22.307424 0.000000 0.000000 0.000000 -22.076934 -12.637395 -2.990744 -44.834208 -15.077027 1.189854 -170.182619 -33.919601 145.718500 0.000000 0.000000 0.000000 2.176427 12.790877 6.290202 26.897079 39.938038 5.555519 -123.761027 31.973217 -31.875018 0.000000 0.000000 0.000000 
